<?xml version="1.0" encoding="UTF-8" standalone="no"?>
<!-- Generator: Adobe Illustrator 19.0.0, SVG Export Plug-In . SVG Version: 6.00 Build 0)  -->

<svg
   xmlns:dc="http://purl.org/dc/elements/1.1/"
   xmlns:cc="http://creativecommons.org/ns#"
   xmlns:rdf="http://www.w3.org/1999/02/22-rdf-syntax-ns#"
   xmlns:svg="http://www.w3.org/2000/svg"
   xmlns="http://www.w3.org/2000/svg"
   xmlns:sodipodi="http://sodipodi.sourceforge.net/DTD/sodipodi-0.dtd"
   xmlns:inkscape="http://www.inkscape.org/namespaces/inkscape"
   version="1.1"
   id="Layer_1"
   x="0px"
   y="0px"
   viewBox="0 0 16.000001 16"
   enable-background="new 0 0 280.3 242"
   xml:space="preserve"
   sodipodi:docname="icon-devpost.svg"
   inkscape:version="0.92.1 r15371"><metadata
     id="metadata4541"><rdf:RDF><cc:Work
         rdf:about=""><dc:format>image/svg+xml</dc:format><dc:type
           rdf:resource="http://purl.org/dc/dcmitype/StillImage" /><dc:title></dc:title></cc:Work></rdf:RDF></metadata><defs
     id="defs4539" /><sodipodi:namedview
     pagecolor="#ffffff"
     bordercolor="#666666"
     borderopacity="1"
     objecttolerance="10"
     gridtolerance="10"
     guidetolerance="10"
     inkscape:pageopacity="0"
     inkscape:pageshadow="2"
     inkscape:window-width="1920"
     inkscape:window-height="1031"
     id="namedview4537"
     showgrid="false"
     inkscape:snap-to-guides="true"
     showguides="false"
     inkscape:zoom="19.495109"
     inkscape:cx="18.059826"
     inkscape:cy="14.526312"
     inkscape:window-x="0"
     inkscape:window-y="25"
     inkscape:window-maximized="1"
     inkscape:current-layer="Layer_1" /><g
     id="XMLID_1_"
     transform="matrix(0.03783451,0,0,0.03783451,2.639553,3.3714871)"
      ><path
    class="social-icon"
       id="XMLID_9_"
       d="M 210.2,0 H 70.1 L 0,121 70.1,242 H 210.2 L 280.3,121 Z M 132.7,195 H 89 V 47 h 45.8 c 42.1,0 73.3,20.1 73.3,74 0,51.8 -37.5,74 -75.4,74 z m 1,-119 H 118 v 90 h 14.7 c 30.9,0 45.1,-18.1 45.1,-45 0,-30.1 -12.9,-45 -44.1,-45 z m 219.4285,46.33573 A 211.44715,211.44715 0 0 1 141.68136,333.78288 211.44715,211.44715 0 0 1 -69.765797,122.33573 211.44715,211.44715 0 0 1 141.68136,-89.111425 211.44715,211.44715 0 0 1 353.1285,122.33573 Z"
       inkscape:connector-curvature="0" /></g></svg>