<?xml version="1.0" encoding="UTF-8" standalone="no"?>
<!-- Generator: Adobe Illustrator 19.0.0, SVG Export Plug-In . SVG Version: 6.00 Build 0)  -->

<svg
   xmlns:dc="http://purl.org/dc/elements/1.1/"
   xmlns:cc="http://creativecommons.org/ns#"
   xmlns:rdf="http://www.w3.org/1999/02/22-rdf-syntax-ns#"
   xmlns:svg="http://www.w3.org/2000/svg"
   xmlns="http://www.w3.org/2000/svg"
   xmlns:sodipodi="http://sodipodi.sourceforge.net/DTD/sodipodi-0.dtd"
   xmlns:inkscape="http://www.inkscape.org/namespaces/inkscape"
   version="1.1"
   id="Layer_1"
   x="0px"
   y="0px"
   viewBox="0 0 16 16"
   xml:space="preserve"
   sodipodi:docname="icon-linkedin.svg"
   inkscape:version="0.92.1 r15371"><metadata
     id="metadata3906"><rdf:RDF><cc:Work
         rdf:about=""><dc:format>image/svg+xml</dc:format><dc:type
           rdf:resource="http://purl.org/dc/dcmitype/StillImage" /><dc:title></dc:title></cc:Work></rdf:RDF></metadata><defs
     id="defs3904" /><sodipodi:namedview
     pagecolor="#ffffff"
     bordercolor="#666666"
     borderopacity="1"
     objecttolerance="10"
     gridtolerance="10"
     guidetolerance="10"
     inkscape:pageopacity="0"
     inkscape:pageshadow="2"
     inkscape:window-width="1920"
     inkscape:window-height="1031"
     id="namedview3902"
     showgrid="false"
     inkscape:zoom="25.923472"
     inkscape:cx="19.880493"
     inkscape:cy="5.9615474"
     inkscape:window-x="0"
     inkscape:window-y="25"
     inkscape:window-maximized="1"
     inkscape:current-layer="g3869" /><g
     id="g3869"
     transform="translate(0,-275.319)"><path
    class="social-icon"
       id="path3867"
       d="m 4.507993,286.31099 h 1.4980141 v -4.99301 H 4.507993 Z m 5.836022,-5.16596 c -0.7270109,0 -1.3775143,0.26549 -1.8389743,0.85152 v -0.695 H 7.0015343 v 5.00949 h 1.5035064 v -2.709 c 0,-0.57251 0.5245111,-1.13102 1.1814952,-1.13102 0.6569841,0 0.8190061,0.55851 0.8190061,1.11702 v 2.72252 h 1.498014 v -2.83402 c -5.5e-5,-1.96853 -0.932037,-2.33151 -1.659541,-2.33151 z m -5.0940176,-0.32602 c 0.4140068,0 0.7500232,-0.33602 0.7500232,-0.75003 0,-0.414 -0.3360164,-0.74996 -0.7500232,-0.74996 -0.4140066,0 -0.7500233,0.33602 -0.7500233,0.75002 0,0.414 0.3360167,0.74997 0.7500233,0.74997 z M 7.9999725,275.319 C 12.418497,275.319 16,278.901 16,283.31903 16,287.73706 12.418497,291.319 7.9999725,291.319 3.5814485,291.319 0,287.737 0,283.31903 0,278.90106 3.5815034,275.319 7.9999725,275.319 Z"
       inkscape:connector-curvature="0" /></g><g
     id="g3871"
     transform="translate(0,-275.319)" /><g
     id="g3873"
     transform="translate(0,-275.319)" /><g
     id="g3875"
     transform="translate(0,-275.319)" /><g
     id="g3877"
     transform="translate(0,-275.319)" /><g
     id="g3879"
     transform="translate(0,-275.319)" /><g
     id="g3881"
     transform="translate(0,-275.319)" /><g
     id="g3883"
     transform="translate(0,-275.319)" /><g
     id="g3885"
     transform="translate(0,-275.319)" /><g
     id="g3887"
     transform="translate(0,-275.319)" /><g
     id="g3889"
     transform="translate(0,-275.319)" /><g
     id="g3891"
     transform="translate(0,-275.319)" /><g
     id="g3893"
     transform="translate(0,-275.319)" /><g
     id="g3895"
     transform="translate(0,-275.319)" /><g
     id="g3897"
     transform="translate(0,-275.319)" /><g
     id="g3899"
     transform="translate(0,-275.319)" /></svg>