<?xml version="1.0" encoding="UTF-8" standalone="no"?>
<svg
   xmlns:dc="http://purl.org/dc/elements/1.1/"
   xmlns:cc="http://creativecommons.org/ns#"
   xmlns:rdf="http://www.w3.org/1999/02/22-rdf-syntax-ns#"
   xmlns:svg="http://www.w3.org/2000/svg"
   xmlns="http://www.w3.org/2000/svg"
   xmlns:xlink="http://www.w3.org/1999/xlink"
   xmlns:sodipodi="http://sodipodi.sourceforge.net/DTD/sodipodi-0.dtd"
   xmlns:inkscape="http://www.inkscape.org/namespaces/inkscape"
   id="Layer_1"
   version="1.1"
   viewBox="0 0 16 16"
   xml:space="preserve"
   sodipodi:docname="icon-email.svg"
   inkscape:version="0.92.1 r15371"><metadata
     id="metadata3863"><rdf:RDF><cc:Work
         rdf:about=""><dc:format>image/svg+xml</dc:format><dc:type
           rdf:resource="http://purl.org/dc/dcmitype/StillImage" /><dc:title></dc:title></cc:Work></rdf:RDF></metadata><defs
     id="defs3861"><clipPath
       clipPathUnits="userSpaceOnUse"
       id="clipPath4729"><use
         x="0"
         y="0"
         xlink:href="#g4725"
         id="use4731"
         width="100%"
         height="100%" /></clipPath></defs><sodipodi:namedview
     pagecolor="#ffffff"
     bordercolor="#666666"
     borderopacity="1"
     objecttolerance="10"
     gridtolerance="10"
     guidetolerance="10"
     inkscape:pageopacity="0"
     inkscape:pageshadow="2"
     inkscape:window-width="1920"
     inkscape:window-height="1031"
     id="namedview3859"
     showgrid="false"
     inkscape:zoom="29.5"
     inkscape:cx="0.33641989"
     inkscape:cy="8.5265244"
     inkscape:window-x="0"
     inkscape:window-y="25"
     inkscape:window-maximized="1"
     inkscape:current-layer="Layer_1" /><style
     type="text/css"
     id="style3836">
	.st0{fill:#FFFFFF;}
</style><g
     id="g4727"
     clip-path="url(#clipPath4729)"
     transform="translate(0,-112)"><g
       inkscape:label="Clip"
       id="g4725"><g
         id="g3840" /></g></g><g
     id="g3846"
     transform="translate(0,-112)"><g
       id="g3844"><path
    class="social-icon"
         d="M 64,28"
         id="path3842"
         inkscape:connector-curvature="0"
         style="fill:#ffffff" /></g></g><g
     id="g3856"
     transform="scale(0.125)"><g
       id="g3850" /><g
       id="g3854"><path
    class="social-icon"
         id="path3852"
         d="m 66.6,75.4 c -1.5,1.3 -3.7,1.3 -5.2,0 L 24,43.5 V 85 c 0,2.2 1.8,4 4,4 h 72 c 2.2,0 4,-1.8 4,-4 V 43.4 Z M 64,72.4 102.2,39.7 C 101.6,39.3 100.8,39 100,39 H 28 c -0.8,0 -1.6,0.3 -2.2,0.7 z M 128,64 A 64,64 0 0 1 64,128 64,64 0 0 1 0,64 64,64 0 0 1 64,0 64,64 0 0 1 128,64 Z"
         inkscape:connector-curvature="0" /></g></g></svg>