<?xml version="1.0" encoding="UTF-8" standalone="no"?>
<!-- Generator: Adobe Illustrator 15.0.0, SVG Export Plug-In . SVG Version: 6.00 Build 0)  -->

<svg
   xmlns:dc="http://purl.org/dc/elements/1.1/"
   xmlns:cc="http://creativecommons.org/ns#"
   xmlns:rdf="http://www.w3.org/1999/02/22-rdf-syntax-ns#"
   xmlns:svg="http://www.w3.org/2000/svg"
   xmlns="http://www.w3.org/2000/svg"
   xmlns:sodipodi="http://sodipodi.sourceforge.net/DTD/sodipodi-0.dtd"
   xmlns:inkscape="http://www.inkscape.org/namespaces/inkscape"
   version="1.1"
   x="0px"
   y="0px"
   viewBox="123.445 0 16 16"
   enable-background="new 123.445 0 596 595.281"
   xml:space="preserve"
   id="svg4543"
   sodipodi:docname="icon-twitter.svg"
   inkscape:version="0.92.1 r15371"><metadata
     id="metadata4549"><rdf:RDF><cc:Work
         rdf:about=""><dc:format>image/svg+xml</dc:format><dc:type
           rdf:resource="http://purl.org/dc/dcmitype/StillImage" /><dc:title></dc:title></cc:Work></rdf:RDF></metadata><defs
     id="defs4547" /><sodipodi:namedview
     pagecolor="#ffffff"
     bordercolor="#666666"
     borderopacity="1"
     objecttolerance="10"
     gridtolerance="10"
     guidetolerance="10"
     inkscape:pageopacity="0"
     inkscape:pageshadow="2"
     inkscape:window-width="1920"
     inkscape:window-height="1031"
     id="namedview4545"
     showgrid="false"
     inkscape:zoom="31.701441"
     inkscape:cx="14.219262"
     inkscape:cy="7.3137604"
     inkscape:window-x="0"
     inkscape:window-y="25"
     inkscape:window-maximized="1"
     inkscape:current-layer="svg4543" /><g
     id="Layer_2"
     transform="translate(-2.9990002,-575.28101)" /><g
     id="Icon"
     transform="matrix(0.02716469,0,0,0.02716469,120.09166,-0.17062166)"><path
       id="path4540"
       class="social-icon"
       d="m 609.773,179.634 c -13.891,6.164 -28.811,10.331 -44.498,12.204 16.01,-9.587 28.275,-24.779 34.066,-42.86 -14.955,8.879 -31.537,15.328 -49.209,18.801 -14.125,-15.056 -34.266,-24.456 -56.551,-24.456 -42.773,0 -77.461,34.675 -77.461,77.473 0,6.064 0.682,11.98 1.996,17.66 -64.389,-3.236 -121.474,-34.079 -159.684,-80.945 -6.672,11.446 -10.491,24.754 -10.491,38.953 0,26.875 13.679,50.587 34.464,64.477 -12.699,-0.396 -24.643,-3.882 -35.097,-9.686 0,0.322 0,0.645 0,0.979 0,37.54 26.701,68.842 62.145,75.961 -6.511,1.785 -13.344,2.716 -20.413,2.716 -4.998,0 -9.847,-0.472 -14.584,-1.364 9.859,30.769 38.47,53.166 72.363,53.799 -26.515,20.785 -59.925,33.174 -96.212,33.174 -6.25,0 -12.427,-0.372 -18.491,-1.104 34.291,21.988 75.006,34.824 118.759,34.824 142.496,0 220.427,-118.052 220.427,-220.428 0,-3.361 -0.074,-6.697 -0.236,-10.021 15.179,-10.976 28.326,-24.617 38.707,-40.157 z m 102.672,121.14701 a 294.5,294.5 0 0 1 -294.5,294.5 294.5,294.5 0 0 1 -294.5,-294.5 294.5,294.5 0 0 1 294.5,-294.5000041 294.5,294.5 0 0 1 294.5,294.5000041 z"
       inkscape:connector-curvature="0" /></g></svg>