<?xml version="1.0" encoding="UTF-8" standalone="no"?>
<svg
   xmlns:dc="http://purl.org/dc/elements/1.1/"
   xmlns:cc="http://creativecommons.org/ns#"
   xmlns:rdf="http://www.w3.org/1999/02/22-rdf-syntax-ns#"
   xmlns:svg="http://www.w3.org/2000/svg"
   xmlns="http://www.w3.org/2000/svg"
   xmlns:sodipodi="http://sodipodi.sourceforge.net/DTD/sodipodi-0.dtd"
   xmlns:inkscape="http://www.inkscape.org/namespaces/inkscape"
   version="1.1"
   id="svg4487"
   x="0px"
   y="0px"
   viewBox="0 0 16.000001 16.000001"
   sodipodi:docname="icon-github.svg"
   inkscape:version="0.92.1 r15371">
  <metadata
     id="metadata4493">
    <rdf:RDF>
      <cc:Work
         rdf:about="">
        <dc:format>image/svg+xml</dc:format>
        <dc:type
           rdf:resource="http://purl.org/dc/dcmitype/StillImage" />
        <dc:title></dc:title>
      </cc:Work>
    </rdf:RDF>
  </metadata>
  <defs
     id="defs4491" />
  <sodipodi:namedview
     pagecolor="#ffffff"
     bordercolor="#666666"
     borderopacity="1"
     objecttolerance="10"
     gridtolerance="10"
     guidetolerance="10"
     inkscape:pageopacity="0"
     inkscape:pageshadow="2"
     inkscape:window-width="1920"
     inkscape:window-height="1031"
     id="namedview4489"
     showgrid="false"
     inkscape:zoom="36.857941"
     inkscape:cx="4.2766851"
     inkscape:cy="6.9796547"
     inkscape:window-x="0"
     inkscape:window-y="25"
     inkscape:window-maximized="1"
     inkscape:current-layer="svg4487" />
  <path
    class="social-icon"
     id="path4495"
     d="m 8,0.00450477 c -4.4179687,0 -8,3.58203123 -8,8.00000003 0,3.5351562 2.292,6.5332032 5.4711875,7.5908122 0.3999062,0.07325 0.5459062,-0.173828 0.5459062,-0.384765 0,-0.190438 -0.00733,-0.821282 -0.011234,-1.48925 C 3.78125,14.204692 3.3110313,12.777942 3.3110313,12.777942 2.9467812,11.854114 2.4228438,11.60802 2.4228438,11.60802 1.6957969,11.111927 2.478,11.121692 2.478,11.121692 c 0.8032188,0.05566 1.2260938,0.824219 1.2260938,0.824219 0.7138749,1.222656 1.8730468,0.869141 2.3281249,0.664063 0.072719,-0.515625 0.27975,-0.869141 0.5078125,-1.06836 C 4.7641562,11.339474 2.896,10.652942 2.896,7.5875048 2.896,6.7134735 3.2080156,6.0005985 3.71875,5.440536 3.6372031,5.237411 3.3618125,4.4234423 3.7978438,3.3223798 c 0,0 0.6709062,-0.2148438 2.2001875,0.8203125 0.6376875,-0.1782188 1.3217812,-0.2661094 2.0019531,-0.2690469 0.6796875,0.00294 1.36425,0.091797 2.0029376,0.2700156 1.526375,-1.036125 2.19825,-0.8203125 2.19825,-0.8203125 0.4375,1.1020469 0.162109,1.9150313 0.08008,2.1171875 0.512688,0.5600625 0.822266,1.2729531 0.822266,2.1469688 0,3.0732502 -1.871094,3.7500002 -3.6533129,3.9482502 0.2880938,0.248047 0.5429688,0.734375 0.5429688,1.480469 0,1.069343 -0.01075,1.93164 -0.01075,2.195312 0,0.212891 0.1455001,0.461906 0.5507811,0.383781 C 13.709969,14.535755 16,11.537708 16,8.0045048 16,3.586536 12.417969,0.00450477 8,0.00450477 Z"
     inkscape:connector-curvature="0" />
</svg>
