<?xml version="1.0" encoding="UTF-8" standalone="no"?>
<!-- Generator: Adobe Illustrator 19.0.0, SVG Export Plug-In . SVG Version: 6.00 Build 0)  -->

<svg
   xmlns:dc="http://purl.org/dc/elements/1.1/"
   xmlns:cc="http://creativecommons.org/ns#"
   xmlns:rdf="http://www.w3.org/1999/02/22-rdf-syntax-ns#"
   xmlns:svg="http://www.w3.org/2000/svg"
   xmlns="http://www.w3.org/2000/svg"
   xmlns:sodipodi="http://sodipodi.sourceforge.net/DTD/sodipodi-0.dtd"
   xmlns:inkscape="http://www.inkscape.org/namespaces/inkscape"
   version="1.1"
   id="Layer_1"
   x="0px"
   y="0px"
   viewBox="0 0 16.000001 16.000001"
   xml:space="preserve"
   sodipodi:docname="icon-doc.svg"
   inkscape:version="0.92.1 r15371"><metadata
     id="metadata4631"><rdf:RDF><cc:Work
         rdf:about=""><dc:format>image/svg+xml</dc:format><dc:type
           rdf:resource="http://purl.org/dc/dcmitype/StillImage" /><dc:title></dc:title></cc:Work></rdf:RDF></metadata><defs
     id="defs4629" /><sodipodi:namedview
     borderopacity="1"
     objecttolerance="10"
     gridtolerance="10"
     guidetolerance="10"
     inkscape:pageopacity="0"
     inkscape:pageshadow="2"
     inkscape:window-width="1920"
     inkscape:window-height="1031"
     id="namedview4627"
     showgrid="false"
     inkscape:zoom="14.481547"
     inkscape:cx="-8.6710045"
     inkscape:cy="2.6265962"
     inkscape:window-x="0"
     inkscape:window-y="25"
     inkscape:window-maximized="1"
     inkscape:current-layer="Layer_1" /><g
     id="g4594"
     transform="matrix(0.0533344,0,0,0.0533344,0,1e-5)"><g
       id="g4592"><g
         id="g4590"><path
          class="social-icon"
           d="M 149.997,0 C 67.156,0 0,67.156 0,149.997 c 0,82.841 67.156,149.997 149.997,149.997 82.841,0 149.997,-67.156 149.997,-149.997 C 299.994,67.156 232.839,0 149.997,0 Z m 51.644,211.953 v 18.225 c 0,10.066 -8.159,18.225 -18.22,18.225 H 85.453 c -10.066,0 -18.225,-8.159 -18.225,-18.225 V 95.763 c 0,-10.066 8.157,-18.225 18.225,-18.225 h 97.967 c 10.066,0 18.223,8.159 18.22,18.228 0.001,0 0.001,18.222 0.001,18.222 z m 23.345,-23.343 v 18.217 c 0,8.237 -5.467,15.193 -12.971,17.45 V 211.952 113.985 95.763 c 0,-15.769 -12.828,-28.599 -28.594,-28.599 H 91.349 c 2.259,-7.503 9.21,-12.971 17.45,-12.971 h 97.967 c 10.061,0 18.22,8.162 18.217,18.228 v 18.223 h 0.003 z"
           id="path4586"
           inkscape:connector-curvature="0" /></g></g></g><g
     id="g4596"
     transform="translate(0,-283.99399)" /><g
     id="g4598"
     transform="translate(0,-283.99399)" /><g
     id="g4600"
     transform="translate(0,-283.99399)" /><g
     id="g4602"
     transform="translate(0,-283.99399)" /><g
     id="g4604"
     transform="translate(0,-283.99399)" /><g
     id="g4606"
     transform="translate(0,-283.99399)" /><g
     id="g4608"
     transform="translate(0,-283.99399)" /><g
     id="g4610"
     transform="translate(0,-283.99399)" /><g
     id="g4612"
     transform="translate(0,-283.99399)" /><g
     id="g4614"
     transform="translate(0,-283.99399)" /><g
     id="g4616"
     transform="translate(0,-283.99399)" /><g
     id="g4618"
     transform="translate(0,-283.99399)" /><g
     id="g4620"
     transform="translate(0,-283.99399)" /><g
     id="g4622"
     transform="translate(0,-283.99399)" /><g
     id="g4624"
     transform="translate(0,-283.99399)" /></svg>